<svg width="196" height="66" viewBox="0 0 196 66" fill="none" xmlns="http://www.w3.org/2000/svg">
<rect width="196" height="66" rx="12" fill="#FF5201"/>
<path d="M21.872 24.364V41.5H33.224V39.58H24.152V24.364H21.872ZM43.4879 34.108H36.3599C36.3919 33.628 36.4959 33.18 36.6719 32.764C36.8479 32.332 37.0879 31.956 37.3919 31.636C37.6959 31.316 38.0559 31.068 38.4719 30.892C38.9039 30.7 39.3839 30.604 39.9119 30.604C40.4239 30.604 40.8879 30.7 41.3039 30.892C41.7359 31.068 42.1039 31.316 42.4079 31.636C42.7279 31.94 42.9759 32.308 43.1519 32.74C43.3439 33.172 43.4559 33.628 43.4879 34.108ZM45.4559 37.564H43.4399C43.2639 38.38 42.8959 38.988 42.3359 39.388C41.7919 39.788 41.0879 39.988 40.2239 39.988C39.5519 39.988 38.9679 39.876 38.4719 39.652C37.9759 39.428 37.5679 39.132 37.2479 38.764C36.9279 38.38 36.6959 37.948 36.5519 37.468C36.4079 36.972 36.3439 36.452 36.3599 35.908H45.6479C45.6799 35.156 45.6079 34.364 45.4319 33.532C45.2719 32.7 44.9679 31.932 44.5199 31.228C44.0879 30.524 43.5039 29.948 42.7679 29.5C42.0479 29.036 41.1359 28.804 40.0319 28.804C39.1839 28.804 38.3999 28.964 37.6799 29.284C36.9759 29.604 36.3599 30.052 35.8319 30.628C35.3199 31.204 34.9199 31.884 34.6319 32.668C34.3439 33.452 34.1999 34.316 34.1999 35.26C34.2319 36.204 34.3679 37.076 34.6079 37.876C34.8639 38.676 35.2399 39.364 35.7359 39.94C36.2319 40.516 36.8399 40.964 37.5599 41.284C38.2959 41.604 39.1599 41.764 40.1519 41.764C41.5599 41.764 42.7279 41.412 43.6559 40.708C44.5839 40.004 45.1839 38.956 45.4559 37.564ZM53.3546 41.5L57.8906 29.092H55.7546L52.3706 39.436H52.3226L48.8426 29.092H46.5626L51.1706 41.5H53.3546ZM68.3786 34.108H61.2506C61.2826 33.628 61.3866 33.18 61.5626 32.764C61.7386 32.332 61.9786 31.956 62.2826 31.636C62.5866 31.316 62.9466 31.068 63.3626 30.892C63.7946 30.7 64.2746 30.604 64.8026 30.604C65.3146 30.604 65.7786 30.7 66.1946 30.892C66.6266 31.068 66.9946 31.316 67.2986 31.636C67.6186 31.94 67.8666 32.308 68.0426 32.74C68.2346 33.172 68.3466 33.628 68.3786 34.108ZM70.3466 37.564H68.3306C68.1546 38.38 67.7866 38.988 67.2266 39.388C66.6826 39.788 65.9786 39.988 65.1146 39.988C64.4426 39.988 63.8586 39.876 63.3626 39.652C62.8666 39.428 62.4586 39.132 62.1386 38.764C61.8186 38.38 61.5866 37.948 61.4426 37.468C61.2986 36.972 61.2346 36.452 61.2506 35.908H70.5386C70.5706 35.156 70.4986 34.364 70.3226 33.532C70.1626 32.7 69.8586 31.932 69.4106 31.228C68.9786 30.524 68.3946 29.948 67.6586 29.5C66.9386 29.036 66.0266 28.804 64.9226 28.804C64.0746 28.804 63.2906 28.964 62.5706 29.284C61.8666 29.604 61.2506 30.052 60.7226 30.628C60.2106 31.204 59.8106 31.884 59.5226 32.668C59.2346 33.452 59.0906 34.316 59.0906 35.26C59.1226 36.204 59.2586 37.076 59.4986 37.876C59.7546 38.676 60.1306 39.364 60.6266 39.94C61.1226 40.516 61.7306 40.964 62.4506 41.284C63.1866 41.604 64.0506 41.764 65.0426 41.764C66.4506 41.764 67.6186 41.412 68.5466 40.708C69.4746 40.004 70.0746 38.956 70.3466 37.564ZM72.7732 24.364V41.5H74.8132V24.364H72.7732Z" fill="white"/>
<path d="M110.272 28.484C110.848 28.484 111.408 28.436 111.952 28.34C112.496 28.244 112.984 28.084 113.416 27.86C113.864 27.636 114.24 27.348 114.544 26.996C114.864 26.644 115.072 26.212 115.168 25.7H117.4V42.5H114.4V30.644H110.272V28.484Z" fill="white"/>
<path d="M161 43.5C166.523 43.5 171 39.0228 171 33.5C171 27.9772 166.523 23.5 161 23.5C155.477 23.5 151 27.9772 151 33.5C151 39.0228 155.477 43.5 161 43.5Z" stroke="white" stroke-width="1.8" stroke-linecap="round" stroke-linejoin="round"/>
<path d="M158.09 30.5001C158.325 29.8317 158.789 29.2682 159.4 28.9092C160.011 28.5502 160.729 28.419 161.427 28.5388C162.125 28.6586 162.759 29.0216 163.215 29.5636C163.671 30.1056 163.921 30.7916 163.92 31.5001C163.92 33.5001 160.92 34.5001 160.92 34.5001" stroke="white" stroke-width="1.8" stroke-linecap="round" stroke-linejoin="round"/>
<path d="M161 38.5H161.01" stroke="white" stroke-width="1.8" stroke-linecap="round" stroke-linejoin="round"/>
</svg>
