<svg width="192" height="66" viewBox="0 0 192 66" fill="none" xmlns="http://www.w3.org/2000/svg">
<rect width="192" height="66" rx="12" fill="white" fill-opacity="0.4"/>
<path d="M25.76 26.284V41.5H28.04V26.284H33.752V24.364H20.048V26.284H25.76ZM37.4773 26.86V24.364H35.4373V26.86H37.4773ZM35.4373 29.092V41.5H37.4773V29.092H35.4373ZM40.6376 29.092V41.5H42.6776V33.772C42.6776 33.532 42.7336 33.236 42.8456 32.884C42.9736 32.516 43.1656 32.164 43.4216 31.828C43.6936 31.492 44.0376 31.204 44.4536 30.964C44.8856 30.724 45.3976 30.604 45.9896 30.604C46.4536 30.604 46.8296 30.676 47.1176 30.82C47.4216 30.948 47.6616 31.14 47.8376 31.396C48.0136 31.636 48.1336 31.924 48.1976 32.26C48.2776 32.596 48.3176 32.964 48.3176 33.364V41.5H50.3576V33.772C50.3576 32.812 50.6456 32.044 51.2216 31.468C51.7976 30.892 52.5896 30.604 53.5976 30.604C54.0936 30.604 54.4936 30.676 54.7976 30.82C55.1176 30.964 55.3656 31.164 55.5416 31.42C55.7176 31.66 55.8376 31.948 55.9016 32.284C55.9656 32.62 55.9976 32.98 55.9976 33.364V41.5H58.0376V32.404C58.0376 31.764 57.9336 31.22 57.7256 30.772C57.5336 30.308 57.2536 29.932 56.8856 29.644C56.5336 29.356 56.1016 29.148 55.5896 29.02C55.0936 28.876 54.5336 28.804 53.9096 28.804C53.0936 28.804 52.3416 28.988 51.6536 29.356C50.9816 29.724 50.4376 30.244 50.0216 30.916C49.7656 30.148 49.3256 29.604 48.7016 29.284C48.0776 28.964 47.3816 28.804 46.6136 28.804C44.8696 28.804 43.5336 29.508 42.6056 30.916H42.5576V29.092H40.6376ZM69.7145 34.108H62.5865C62.6185 33.628 62.7225 33.18 62.8985 32.764C63.0745 32.332 63.3145 31.956 63.6185 31.636C63.9225 31.316 64.2825 31.068 64.6985 30.892C65.1305 30.7 65.6105 30.604 66.1385 30.604C66.6505 30.604 67.1145 30.7 67.5305 30.892C67.9625 31.068 68.3305 31.316 68.6345 31.636C68.9545 31.94 69.2025 32.308 69.3785 32.74C69.5705 33.172 69.6825 33.628 69.7145 34.108ZM71.6825 37.564H69.6665C69.4905 38.38 69.1225 38.988 68.5625 39.388C68.0185 39.788 67.3145 39.988 66.4505 39.988C65.7785 39.988 65.1945 39.876 64.6985 39.652C64.2025 39.428 63.7945 39.132 63.4745 38.764C63.1545 38.38 62.9225 37.948 62.7785 37.468C62.6345 36.972 62.5705 36.452 62.5865 35.908H71.8745C71.9065 35.156 71.8345 34.364 71.6585 33.532C71.4985 32.7 71.1945 31.932 70.7465 31.228C70.3145 30.524 69.7305 29.948 68.9945 29.5C68.2745 29.036 67.3625 28.804 66.2585 28.804C65.4105 28.804 64.6265 28.964 63.9065 29.284C63.2025 29.604 62.5865 30.052 62.0585 30.628C61.5465 31.204 61.1465 31.884 60.8585 32.668C60.5705 33.452 60.4265 34.316 60.4265 35.26C60.4585 36.204 60.5945 37.076 60.8345 37.876C61.0905 38.676 61.4665 39.364 61.9625 39.94C62.4585 40.516 63.0665 40.964 63.7865 41.284C64.5225 41.604 65.3865 41.764 66.3785 41.764C67.7865 41.764 68.9545 41.412 69.8825 40.708C70.8105 40.004 71.4105 38.956 71.6825 37.564Z" fill="white"/>
<path d="M106.272 28.484C106.848 28.484 107.408 28.436 107.952 28.34C108.496 28.244 108.984 28.084 109.416 27.86C109.864 27.636 110.24 27.348 110.544 26.996C110.864 26.644 111.072 26.212 111.168 25.7H113.4V42.5H110.4V30.644H106.272V28.484ZM125.008 25.364C126.208 25.364 127.184 25.644 127.936 26.204C128.704 26.748 129.296 27.452 129.712 28.316C130.144 29.164 130.432 30.1 130.576 31.124C130.736 32.148 130.816 33.14 130.816 34.1C130.816 35.06 130.736 36.052 130.576 37.076C130.432 38.1 130.144 39.044 129.712 39.908C129.296 40.756 128.704 41.46 127.936 42.02C127.184 42.564 126.208 42.836 125.008 42.836C123.808 42.836 122.824 42.564 122.056 42.02C121.304 41.46 120.712 40.756 120.28 39.908C119.864 39.044 119.576 38.1 119.416 37.076C119.272 36.052 119.2 35.06 119.2 34.1C119.2 33.14 119.272 32.148 119.416 31.124C119.576 30.1 119.864 29.164 120.28 28.316C120.712 27.452 121.304 26.748 122.056 26.204C122.824 25.644 123.808 25.364 125.008 25.364ZM125.008 40.556C125.6 40.556 126.096 40.388 126.496 40.052C126.896 39.7 127.208 39.236 127.432 38.66C127.672 38.068 127.84 37.38 127.936 36.596C128.032 35.812 128.08 34.98 128.08 34.1C128.08 33.22 128.032 32.396 127.936 31.628C127.84 30.844 127.672 30.156 127.432 29.564C127.208 28.972 126.896 28.508 126.496 28.172C126.096 27.82 125.6 27.644 125.008 27.644C124.4 27.644 123.896 27.82 123.496 28.172C123.112 28.508 122.8 28.972 122.56 29.564C122.336 30.156 122.176 30.844 122.08 31.628C121.984 32.396 121.936 33.22 121.936 34.1C121.936 34.98 121.984 35.812 122.08 36.596C122.176 37.38 122.336 38.068 122.56 38.66C122.8 39.236 123.112 39.7 123.496 40.052C123.896 40.388 124.4 40.556 125.008 40.556Z" fill="white"/>
<path d="M160 43.5C165.523 43.5 170 39.0228 170 33.5C170 27.9772 165.523 23.5 160 23.5C154.477 23.5 150 27.9772 150 33.5C150 39.0228 154.477 43.5 160 43.5Z" stroke="white" stroke-width="1.8" stroke-linecap="round" stroke-linejoin="round"/>
<path d="M160 27.5V33.5L164 35.5" stroke="white" stroke-width="1.8" stroke-linecap="round" stroke-linejoin="round"/>
</svg>
